<svg width="170" height="170" viewBox="0 0 170 170" fill="none" xmlns="http://www.w3.org/2000/svg">
<path d="M81.84 119.36H76.22V114.88H81.84V119.36Z" fill="#3D3E54"/>
<path d="M69.1517 108.76C68.7384 110.535 68.3053 112.308 67.8993 113.873C68.6656 114.313 69.4738 114.824 70.2508 115.365C71.0019 113.567 71.5222 111.366 71.7858 108.76H69.1517Z" fill="#3D3E54"/>
<path d="M52.36 105.94V110.8C52.36 111.086 52.3573 111.372 52.3505 111.66H57.96V105.94H52.36Z" fill="#3D3E54"/>
<path d="M114.12 119.32H121.44V114.58H114.12V119.32Z" fill="#3D3E54"/>
<path fill-rule="evenodd" clip-rule="evenodd" d="M166 85C166 129.735 129.735 166 85 166C40.2649 166 4 129.735 4 85C4 40.2649 40.2649 4 85 4C129.735 4 166 40.2649 166 85ZM76.8209 82.2693C74.1543 83.8089 70.8209 81.8844 70.8209 78.8052V54.5565C70.8209 51.4773 74.1543 49.5528 76.8209 51.0924L97.8209 63.2168C100.488 64.7564 100.488 68.6054 97.8209 70.145L76.8209 82.2693ZM76.22 120.72V121.62H74.78V113.5H83.32V121.54H81.84V120.72H76.22ZM73.6 111.62L73.42 110.14C73.8995 110.116 74.435 110.088 75.0139 110.057C75.8605 108.101 76.8078 105.249 77.32 103.2L78.96 103.54C78.2675 105.601 77.3467 108.104 76.5109 109.976C78.1554 109.886 80.0168 109.778 81.8803 109.658C81.3298 108.712 80.6825 107.747 80.04 106.92L81.24 106.3C82.58 107.96 83.96 110.2 84.5 111.68L83.18 112.4C83.0429 111.972 82.8357 111.479 82.5788 110.955L81.867 111.01C78.8505 111.243 75.7946 111.478 73.6 111.62ZM65.86 108.76V107.34H68.0617C68.3789 105.882 68.6689 104.455 68.9 103.2L70.34 103.36C70.0883 104.588 69.7932 105.948 69.4778 107.34H72.14L72.4 107.3L73.3 107.48C73.0452 111.133 72.4294 114.007 71.4632 116.254C72.4237 116.998 73.2598 117.754 73.8 118.42L72.88 119.64C72.3905 119.018 71.6567 118.306 70.8055 117.593C69.7947 119.4 68.4969 120.717 66.92 121.66C66.7 121.3 66.3 120.76 65.98 120.46C67.4462 119.683 68.6745 118.418 69.6303 116.664C68.95 116.154 68.2367 115.664 67.5401 115.23C67.4581 115.533 67.3779 115.823 67.3 116.1L66.06 115.42C66.5667 113.708 67.1812 111.255 67.7464 108.76H65.86ZM46.78 105.94V104.52H63.34V105.94H59.5V111.66H63.98V113.1H59.5V121.62H57.96V113.1H52.275C52.0057 116.244 50.9569 119.349 47.26 121.68C47 121.34 46.46 120.82 46.08 120.58C49.434 118.505 50.4517 115.822 50.7372 113.1H46.04V111.66H50.8287C50.8369 111.372 50.84 111.085 50.84 110.8V105.94H46.78ZM91.6 113.04V114.46H97.06V121.6H98.58V114.46H104.2V113.04H98.58V105.66H103.32V104.22H92.16V105.66H97.06V113.04H91.6ZM101.52 106.74C101.24 108.26 100.66 110.46 100.16 111.8L101.36 112.16C101.881 110.905 102.459 108.941 102.948 107.277L103 107.1L101.52 106.74ZM92.84 107.1C93.38 108.68 93.84 110.7 93.98 112.06L95.32 111.7C95.18 110.36 94.7 108.34 94.1 106.76L92.84 107.1ZM86.94 104.78C87.98 105.72 89.32 107.06 89.94 107.9L90.94 106.84C90.3 106.02 88.96 104.76 87.9 103.86L86.94 104.78ZM88.42 121.2C88.6524 120.868 89.0637 120.55 91.082 118.989L91.0879 118.984C91.5008 118.665 91.9808 118.294 92.54 117.86C92.36 117.56 92.12 116.98 92 116.6L90.02 118.079V109.48H85.86V110.94H88.62V118.32C88.62 119.18 88.06 119.72 87.7 119.94C87.96 120.24 88.3 120.84 88.42 121.2ZM105.36 111.26C107.34 109.32 109.2 106.32 110.32 103.28L111.74 103.72C111.162 105.209 110.446 106.694 109.64 108.082V121.58H108.2V110.319C107.559 111.216 106.887 112.034 106.2 112.74C106.06 112.4 105.62 111.6 105.36 111.26ZM112.62 121.6V113.14H116.96V109.04H111.48V107.6H116.96V103.2H118.5V107.6H124.2V109.04H118.5V113.14H122.98V121.52H121.44V120.74H114.12V121.6H112.62Z" fill="#3D3E54"/>
<path fill-rule="evenodd" clip-rule="evenodd" d="M85 166C129.735 166 166 129.735 166 85C166 40.2649 129.735 4 85 4C40.2649 4 4 40.2649 4 85C4 129.735 40.2649 166 85 166ZM85 170C131.944 170 170 131.944 170 85C170 38.0558 131.944 0 85 0C38.0558 0 0 38.0558 0 85C0 131.944 38.0558 170 85 170Z" fill="#606266"/>
<path d="M76.8213 82.2694C74.1546 83.809 70.8213 81.8845 70.8213 78.8053L70.8213 54.5566C70.8213 51.4774 74.1546 49.5529 76.8213 51.0925L97.8213 63.2168C100.488 64.7564 100.488 68.6054 97.8213 70.145L76.8213 82.2694Z" fill="#606266"/>
<path fill-rule="evenodd" clip-rule="evenodd" d="M76.22 120.72V121.62H74.78V113.5H83.32V121.54H81.84V120.72H76.22ZM81.84 119.36H76.22V114.88H81.84V119.36Z" fill="#606266"/>
<path d="M73.6 111.62L73.42 110.14C73.8995 110.116 74.435 110.088 75.0139 110.057C75.8605 108.101 76.8078 105.249 77.32 103.2L78.96 103.54C78.2675 105.601 77.3467 108.104 76.5109 109.976C78.1554 109.886 80.0168 109.778 81.8803 109.658C81.3298 108.712 80.6825 107.747 80.04 106.92L81.24 106.3C82.58 107.96 83.96 110.2 84.5 111.68L83.18 112.4C83.0429 111.972 82.8357 111.479 82.5788 110.955L81.867 111.01C78.8505 111.243 75.7946 111.478 73.6 111.62Z" fill="#606266"/>
<path fill-rule="evenodd" clip-rule="evenodd" d="M65.86 108.76V107.34H68.0617C68.3789 105.882 68.6689 104.455 68.9 103.2L70.34 103.36C70.0883 104.588 69.7932 105.948 69.4778 107.34H72.14L72.4 107.3L73.3 107.48C73.0452 111.133 72.4294 114.007 71.4632 116.254C72.4237 116.998 73.2598 117.754 73.8 118.42L72.88 119.64C72.3905 119.018 71.6567 118.306 70.8055 117.593C69.7947 119.4 68.4969 120.717 66.92 121.66C66.7 121.3 66.3 120.76 65.98 120.46C67.4462 119.683 68.6745 118.418 69.6303 116.664C68.95 116.154 68.2367 115.664 67.5401 115.23C67.4581 115.533 67.3779 115.823 67.3 116.1L66.06 115.42C66.5667 113.708 67.1812 111.255 67.7464 108.76H65.86ZM69.1517 108.76C68.7384 110.535 68.3053 112.308 67.8993 113.873C68.6656 114.313 69.4738 114.824 70.2508 115.365C71.0019 113.567 71.5222 111.366 71.7858 108.76H69.1517Z" fill="#606266"/>
<path fill-rule="evenodd" clip-rule="evenodd" d="M46.78 105.94V104.52H63.34V105.94H59.5V111.66H63.98V113.1H59.5V121.62H57.96V113.1H52.275C52.0057 116.244 50.9569 119.349 47.26 121.68C47 121.34 46.46 120.82 46.08 120.58C49.434 118.505 50.4517 115.822 50.7372 113.1H46.04V111.66H50.8287C50.8369 111.372 50.84 111.085 50.84 110.8V105.94H46.78ZM52.36 105.94V110.8C52.36 111.086 52.3573 111.372 52.3505 111.66H57.96V105.94H52.36Z" fill="#606266"/>
<path d="M91.6 113.04V114.46H97.06V121.6H98.58V114.46H104.2V113.04H98.58V105.66H103.32V104.22H92.16V105.66H97.06V113.04H91.6Z" fill="#606266"/>
<path d="M101.52 106.74C101.24 108.26 100.66 110.46 100.16 111.8L101.36 112.16C101.881 110.905 102.459 108.941 102.948 107.277L103 107.1L101.52 106.74Z" fill="#606266"/>
<path d="M92.84 107.1C93.38 108.68 93.84 110.7 93.98 112.06L95.32 111.7C95.18 110.36 94.7 108.34 94.1 106.76L92.84 107.1Z" fill="#606266"/>
<path d="M86.94 104.78C87.98 105.72 89.32 107.06 89.94 107.9L90.94 106.84C90.3 106.02 88.96 104.76 87.9 103.86L86.94 104.78Z" fill="#606266"/>
<path d="M88.42 121.2C88.6524 120.868 89.0637 120.55 91.082 118.989C91.4962 118.669 91.9781 118.296 92.54 117.86C92.36 117.56 92.12 116.98 92 116.6L90.02 118.079V109.48H85.86V110.94H88.62V118.32C88.62 119.18 88.06 119.72 87.7 119.94C87.96 120.24 88.3 120.84 88.42 121.2Z" fill="#606266"/>
<path d="M105.36 111.26C107.34 109.32 109.2 106.32 110.32 103.28L111.74 103.72C111.162 105.209 110.446 106.694 109.64 108.082V121.58H108.2V110.319C107.559 111.216 106.887 112.034 106.2 112.74C106.06 112.4 105.62 111.6 105.36 111.26Z" fill="#606266"/>
<path fill-rule="evenodd" clip-rule="evenodd" d="M112.62 121.6V113.14H116.96V109.04H111.48V107.6H116.96V103.2H118.5V107.6H124.2V109.04H118.5V113.14H122.98V121.52H121.44V120.74H114.12V121.6H112.62ZM114.12 119.32H121.44V114.58H114.12V119.32Z" fill="#606266"/>
</svg>
