<svg width="170" height="170" viewBox="0 0 170 170" fill="none" xmlns="http://www.w3.org/2000/svg">
<path d="M49.9196 119.72H60.0796V118.04H49.9196V119.72Z" fill="#3D3E54"/>
<path d="M49.9196 116.96H60.0796V115.32H49.9196V116.96Z" fill="#3D3E54"/>
<path d="M81.0396 108.64H74.2596V110.5H81.0396V108.64Z" fill="#3D3E54"/>
<path d="M114.12 119.32H121.44V114.58H114.12V119.32Z" fill="#3D3E54"/>
<path fill-rule="evenodd" clip-rule="evenodd" d="M166 85C166 129.735 129.735 166 85 166C40.2649 166 4 129.735 4 85C4 40.2649 40.2649 4 85 4C129.735 4 166 40.2649 166 85ZM71.4855 49C73.9627 49 75.971 51.0082 75.971 53.4855V80.5145C75.971 82.9918 73.9627 85 71.4855 85C69.0082 85 67 82.9918 67 80.5145V53.4855C67 51.0082 69.0082 49 71.4855 49ZM98.5145 49C100.992 49 103 51.0082 103 53.4855V80.5145C103 82.9918 100.992 85 98.5145 85C96.0373 85 94.029 82.9918 94.029 80.5145V53.4855C94.029 51.0082 96.0373 49 98.5145 49ZM57.5877 108.92C57.4585 110.558 57.053 112.403 55.9996 113.72C55.7596 113.5 55.1596 113.1 54.8396 112.98C56.1396 111.36 56.2996 109.18 56.2996 107.54V104.54C58.4996 104.36 61.1396 104 62.6396 103.5L63.4596 104.62C61.9132 105.084 59.6731 105.4 57.6396 105.569V107.56C57.6396 107.606 57.6394 107.653 57.6391 107.7H64.0196V108.92H61.6796V113.7H60.2796V108.92H57.5877ZM48.4796 121.62V114.12H61.5796V121.56H60.0796V120.9H49.9196V121.62H48.4796ZM46.0596 105.72V104.54H48.9998C49.2479 104.091 49.4843 103.621 49.6796 103.16L51.1796 103.58C51.0025 103.9 50.8162 104.221 50.6228 104.54H55.3396V105.72H49.8659C49.3326 106.507 48.7704 107.248 48.2161 107.88H50.7996V106.56H52.1996V107.88H55.3596V109.08H52.1996V110.6C53.2015 110.503 54.2332 110.401 55.2596 110.3V111.44C54.3303 111.542 53.3914 111.644 52.4692 111.744L52.1996 111.773V113.72H50.7996V111.926C49.09 112.112 47.5014 112.288 46.2196 112.44L46.0796 111.16C47.3347 111.059 48.9855 110.908 50.7996 110.735V109.08H48.3996C47.5596 109.08 46.9396 109.2 46.7596 109.36C46.6796 109.06 46.4596 108.38 46.2996 108C46.6196 107.94 46.9396 107.6 47.3196 107.14C47.4908 106.921 47.8701 106.395 48.2983 105.72H46.0596ZM71.2796 106.46V105.16H76.8596V103.28H78.3596V105.16H84.0996V106.46H71.2796ZM72.8196 111.58V107.56H82.5596V111.58H72.8196ZM70.9396 116.2V112.74H84.2796V116.16H82.8996V113.94H72.2996V116.2H70.9396ZM73.2196 116.54V115.3H82.1596V116.54H78.3396V120C78.3396 120.82 78.1796 121.2 77.5396 121.42C76.8996 121.64 75.8796 121.64 74.3796 121.64C74.3196 121.22 74.0996 120.68 73.9196 120.26C75.0796 120.3 76.1596 120.3 76.4596 120.28C76.7796 120.28 76.8596 120.2 76.8596 119.96V116.54H73.2196ZM65.2996 111.26C67.2796 109.32 69.1596 106.32 70.2796 103.28L71.6996 103.72C71.1325 105.18 70.429 106.637 69.6396 108.002V121.58H68.1996V110.251C67.5444 111.174 66.8572 112.016 66.1596 112.74C65.9996 112.4 65.5796 111.6 65.2996 111.26ZM91.5996 113.04V114.46H97.0596V121.6H98.5796V114.46H104.2V113.04H98.5796V105.66H103.32V104.22H92.1596V105.66H97.0596V113.04H91.5996ZM101.52 106.74C101.24 108.26 100.66 110.46 100.16 111.8L101.36 112.16C101.881 110.905 102.458 108.942 102.947 107.278L102.948 107.277L103 107.1L101.52 106.74ZM92.8396 107.1C93.3796 108.68 93.8396 110.7 93.9796 112.06L95.3196 111.7C95.1796 110.36 94.6996 108.34 94.0996 106.76L92.8396 107.1ZM86.9396 104.78C87.9796 105.72 89.3196 107.06 89.9396 107.9L90.9396 106.84C90.2996 106.02 88.9596 104.76 87.8996 103.86L86.9396 104.78ZM88.4196 121.2C88.6519 120.868 89.0632 120.55 91.0815 118.989C91.4957 118.669 91.9776 118.296 92.5396 117.86C92.3596 117.56 92.1196 116.98 91.9996 116.6L90.0196 118.079V109.48H85.8596V110.94H88.6196V118.32C88.6196 119.18 88.0596 119.72 87.6996 119.94C87.9596 120.24 88.2996 120.84 88.4196 121.2ZM105.36 111.26C107.34 109.32 109.2 106.32 110.32 103.28L111.74 103.72C111.161 105.209 110.445 106.694 109.64 108.082V121.58H108.2V110.319C107.559 111.216 106.886 112.034 106.2 112.74C106.06 112.4 105.62 111.6 105.36 111.26ZM112.62 121.6V113.14H116.96V109.04H111.48V107.6H116.96V103.2H118.5V107.6H124.2V109.04H118.5V113.14H122.98V121.52H121.44V120.74H114.12V121.6H112.62Z" fill="#3D3E54"/>
<path fill-rule="evenodd" clip-rule="evenodd" d="M85 166C129.735 166 166 129.735 166 85C166 40.2649 129.735 4 85 4C40.2649 4 4 40.2649 4 85C4 129.735 40.2649 166 85 166ZM85 170C131.944 170 170 131.944 170 85C170 38.0558 131.944 0 85 0C38.0558 0 0 38.0558 0 85C0 131.944 38.0558 170 85 170Z" fill="#FAFAFA"/>
<path d="M71.4855 49C73.9627 49 75.971 51.0082 75.971 53.4855V80.5145C75.971 82.9918 73.9627 85 71.4855 85V85C69.0082 85 67 82.9918 67 80.5145V53.4855C67 51.0082 69.0082 49 71.4855 49V49Z" fill="white"/>
<path d="M98.5145 49C100.992 49 103 51.0082 103 53.4855V80.5145C103 82.9918 100.992 85 98.5145 85V85C96.0373 85 94.029 82.9918 94.029 80.5145V53.4855C94.029 51.0082 96.0373 49 98.5145 49V49Z" fill="white"/>
<path d="M57.5877 108.92C57.4585 110.558 57.053 112.403 55.9996 113.72C55.7596 113.5 55.1596 113.1 54.8396 112.98C56.1396 111.36 56.2996 109.18 56.2996 107.54V104.54C58.4996 104.36 61.1396 104 62.6396 103.5L63.4596 104.62C61.9132 105.084 59.6731 105.4 57.6396 105.569V107.56C57.6396 107.606 57.6394 107.653 57.639 107.7H64.0196V108.92H61.6796V113.7H60.2796V108.92H57.5877Z" fill="#FAFAFA"/>
<path fill-rule="evenodd" clip-rule="evenodd" d="M48.4796 121.62V114.12H61.5796V121.56H60.0796V120.9H49.9196V121.62H48.4796ZM49.9196 119.72H60.0796V118.04H49.9196V119.72ZM49.9196 116.96H60.0796V115.32H49.9196V116.96Z" fill="#FAFAFA"/>
<path d="M46.0596 105.72V104.54H48.9998C49.2479 104.091 49.4843 103.621 49.6796 103.16L51.1796 103.58C51.0025 103.9 50.8162 104.221 50.6228 104.54H55.3396V105.72H49.8659C49.3326 106.507 48.7704 107.248 48.2161 107.88H50.7996V106.56H52.1996V107.88H55.3596V109.08H52.1996V110.6C53.2015 110.503 54.2332 110.401 55.2596 110.3V111.44C54.3303 111.542 53.3914 111.644 52.4692 111.744L52.1996 111.773V113.72H50.7996V111.926C49.09 112.112 47.5014 112.288 46.2196 112.44L46.0796 111.16C47.3347 111.059 48.9855 110.908 50.7996 110.735V109.08H48.3996C47.5596 109.08 46.9396 109.2 46.7596 109.36C46.6796 109.06 46.4596 108.38 46.2996 108C46.6196 107.94 46.9396 107.6 47.3196 107.14C47.4908 106.921 47.8701 106.395 48.2983 105.72H46.0596Z" fill="#FAFAFA"/>
<path d="M71.2796 106.46V105.16H76.8596V103.28H78.3596V105.16H84.0996V106.46H71.2796Z" fill="#FAFAFA"/>
<path fill-rule="evenodd" clip-rule="evenodd" d="M72.8196 111.58V107.56H82.5596V111.58H72.8196ZM81.0396 108.64H74.2596V110.5H81.0396V108.64Z" fill="#FAFAFA"/>
<path d="M70.9396 116.2V112.74H84.2796V116.16H82.8996V113.94H72.2996V116.2H70.9396Z" fill="#FAFAFA"/>
<path d="M73.2196 116.54V115.3H82.1596V116.54H78.3396V120C78.3396 120.82 78.1796 121.2 77.5396 121.42C76.8996 121.64 75.8796 121.64 74.3796 121.64C74.3196 121.22 74.0996 120.68 73.9196 120.26C75.0796 120.3 76.1596 120.3 76.4596 120.28C76.7796 120.28 76.8596 120.2 76.8596 119.96V116.54H73.2196Z" fill="#FAFAFA"/>
<path d="M65.2996 111.26C67.2796 109.32 69.1596 106.32 70.2796 103.28L71.6996 103.72C71.1325 105.18 70.429 106.637 69.6396 108.002V121.58H68.1996V110.251C67.5444 111.174 66.8572 112.016 66.1596 112.74C65.9996 112.4 65.5796 111.6 65.2996 111.26Z" fill="#FAFAFA"/>
<path d="M91.5996 113.04V114.46H97.0596V121.6H98.5796V114.46H104.2V113.04H98.5796V105.66H103.32V104.22H92.1596V105.66H97.0596V113.04H91.5996Z" fill="#FAFAFA"/>
<path d="M101.52 106.74C101.24 108.26 100.66 110.46 100.16 111.8L101.36 112.16C101.881 110.905 102.458 108.941 102.947 107.277L103 107.1L101.52 106.74Z" fill="#FAFAFA"/>
<path d="M92.8396 107.1C93.3796 108.68 93.8396 110.7 93.9796 112.06L95.3196 111.7C95.1796 110.36 94.6996 108.34 94.0996 106.76L92.8396 107.1Z" fill="#FAFAFA"/>
<path d="M86.9396 104.78C87.9796 105.72 89.3196 107.06 89.9396 107.9L90.9396 106.84C90.2996 106.02 88.9596 104.76 87.8996 103.86L86.9396 104.78Z" fill="#FAFAFA"/>
<path d="M91.0815 118.989C91.4957 118.669 91.9776 118.296 92.5396 117.86C92.3596 117.56 92.1196 116.98 91.9996 116.6L90.0196 118.079V109.48H85.8596V110.94H88.6196V118.32C88.6196 119.18 88.0596 119.72 87.6996 119.94C87.9596 120.24 88.2996 120.84 88.4196 121.2C88.6519 120.868 89.0633 120.55 91.0815 118.989Z" fill="#FAFAFA"/>
<path d="M105.36 111.26C107.34 109.32 109.2 106.32 110.32 103.28L111.74 103.72C111.161 105.209 110.445 106.694 109.64 108.082V121.58H108.2V110.319C107.559 111.216 106.886 112.034 106.2 112.74C106.06 112.4 105.62 111.6 105.36 111.26Z" fill="#FAFAFA"/>
<path fill-rule="evenodd" clip-rule="evenodd" d="M112.62 121.6V113.14H116.96V109.04H111.48V107.6H116.96V103.2H118.5V107.6H124.2V109.04H118.5V113.14H122.98V121.52H121.44V120.74H114.12V121.6H112.62ZM114.12 119.32H121.44V114.58H114.12V119.32Z" fill="#FAFAFA"/>
</svg>
