<svg width="150" height="150" viewBox="0 0 150 150" fill="none" xmlns="http://www.w3.org/2000/svg">
<g clip-path="url(#clip0_187_1470)">
<path fill-rule="evenodd" clip-rule="evenodd" d="M75 148C115.317 148 148 115.317 148 75C148 34.6832 115.317 2 75 2C34.6832 2 2 34.6832 2 75C2 115.317 34.6832 148 75 148ZM68.6794 81.3206V100H81.3206V81.3206H100V68.6794H81.3206V50H68.6794V68.6794H50V81.3206H68.6794Z" fill="#1252F6"/>
<path d="M68.6794 81.3206V100H81.3206V81.3206H100V68.6794H81.3206V50H68.6794V68.6794H50V81.3206H68.6794Z" fill="white"/>
<path fill-rule="evenodd" clip-rule="evenodd" d="M75 148C115.317 148 148 115.317 148 75C148 34.6832 115.317 2 75 2C34.6832 2 2 34.6832 2 75C2 115.317 34.6832 148 75 148ZM75 150C116.421 150 150 116.421 150 75C150 33.5786 116.421 0 75 0C33.5786 0 0 33.5786 0 75C0 116.421 33.5786 150 75 150Z" fill="white"/>
</g>
<defs>
<clipPath id="clip0_187_1470">
<rect width="150" height="150" rx="75" fill="white"/>
</clipPath>
</defs>
</svg>
