<svg width="170" height="170" viewBox="0 0 170 170" fill="none" xmlns="http://www.w3.org/2000/svg">
<path fill-rule="evenodd" clip-rule="evenodd" d="M165.5 85C165.5 129.735 129.235 166 84.5 166C39.7649 166 3.5 129.735 3.5 85C3.5 40.2649 39.7649 4 84.5 4C129.235 4 165.5 40.2649 165.5 85ZM76.3213 82.2694C73.6546 83.809 70.3213 81.8845 70.3213 78.8053V54.5566C70.3213 51.4774 73.6546 49.5529 76.3213 51.0925L97.3213 63.2168C99.988 64.7564 99.988 68.6054 97.3213 70.145L76.3213 82.2694Z" fill="#3D3E54"/>
<path fill-rule="evenodd" clip-rule="evenodd" d="M85 166C129.735 166 166 129.735 166 85C166 40.2649 129.735 4 85 4C40.2649 4 4 40.2649 4 85C4 129.735 40.2649 166 85 166ZM85 170C131.944 170 170 131.944 170 85C170 38.0558 131.944 0 85 0C38.0558 0 0 38.0558 0 85C0 131.944 38.0558 170 85 170Z" fill="#FAFAFA"/>
<path d="M46.5557 115.967L46.4727 115.706C46.376 115.411 46.2568 115.071 46.1602 114.84C46.5996 114.78 47.04 114.26 47.6602 113.52C47.7754 113.39 47.9385 113.192 48.1357 112.938L48.292 112.735L48.458 112.515C48.5605 112.378 48.6689 112.231 48.7822 112.075C49.0615 111.689 49.3691 111.25 49.6855 110.775C47.2432 111.107 46.7842 111.218 46.5 111.36V111.38C46.4512 111.186 46.3438 110.845 46.2266 110.522C46.1768 110.384 46.125 110.249 46.0752 110.13C46.0498 110.068 46.0244 110.011 46 109.96C46.3604 109.88 46.7002 109.4 47.0996 108.72C47.54 108.04 48.9004 105.42 49.6396 103L51.04 103.64C50.2295 105.777 49.1084 108.002 47.957 109.742L50.5068 109.491C50.9443 108.776 51.3711 108.023 51.7402 107.28L52.9805 108C51.7148 110.206 50.2256 112.424 48.6953 114.219L52.7002 113.48C52.6602 113.88 52.6602 114.44 52.6797 114.74C47.7002 115.76 47.0195 115.94 46.6201 116.18C46.6045 116.123 46.582 116.051 46.5557 115.967Z" fill="#D9D9D9"/>
<path d="M46.4004 120.1L46.1396 118.7C47.7998 118.36 50.3203 117.8 52.7998 117.2L52.9404 118.46C51.8174 118.743 50.666 119.031 49.5693 119.305C48.4199 119.592 47.332 119.865 46.4004 120.1Z" fill="#D9D9D9"/>
<path d="M55.54 110.7V109.42H59.1797V103.18H60.4404V109.42H64.2002V110.7H60.5225C60.9336 111.161 61.6367 112.002 62.3193 112.838C63.0938 113.785 63.8447 114.726 64.1201 115.1L63.1602 116.12C63.0674 115.951 62.9424 115.746 62.7959 115.516C62.6816 115.337 62.5537 115.143 62.416 114.938C61.8271 114.063 61.0615 113.001 60.4404 112.164V118.28H59.1797V112.146C58.3682 113.954 57.2939 115.735 56.2197 116.78C56.0801 116.4 55.7598 115.86 55.54 115.54C56.7168 114.467 57.9697 112.525 58.7383 110.7H55.54Z" fill="#D9D9D9"/>
<path d="M61.1797 108.24C61.6797 107.2 62.3203 105.56 62.6201 104.42L63.8398 104.78C63.6982 105.117 63.5479 105.471 63.3936 105.827L63.2031 106.262L62.9209 106.893C62.6377 107.518 62.3555 108.107 62.0996 108.58L61.1797 108.24Z" fill="#D9D9D9"/>
<path d="M57.1201 108.58C56.8799 107.54 56.3604 105.94 55.8799 104.74L56.9004 104.46C57.4004 105.66 57.96 107.22 58.1797 108.24L57.1201 108.58Z" fill="#D9D9D9"/>
<path d="M53.5801 120.38V103.82H54.9805V119.02H64.3604V120.38H53.5801Z" fill="#D9D9D9"/>
<path d="M74.04 106.16V104.88H77.6602V103.04H79.1602V104.88H82.9805V106.16H79.1602V107.96H82.8398L83.0801 107.9L84.0195 108.14C83.6201 109.48 83.0996 111 82.6201 111.94L81.4404 111.62C81.4941 111.496 81.5498 111.361 81.6074 111.219C81.6953 111.001 81.7861 110.765 81.877 110.517C82.0244 110.118 82.1719 109.688 82.3076 109.26H73.2998V107.96H77.6602V106.16H74.04Z" fill="#D9D9D9"/>
<path d="M77.2197 112.64C76.7002 112.08 75.6602 111.3 74.7598 110.78L75.4805 110.04C76.3604 110.52 77.4404 111.26 77.96 111.82L77.2197 112.64Z" fill="#D9D9D9"/>
<path d="M75.8604 114.54C75.3398 113.96 74.2402 113.14 73.3203 112.6L74.04 111.84C74.9404 112.32 76.0596 113.1 76.6201 113.68L75.8604 114.54Z" fill="#D9D9D9"/>
<path d="M72.9004 116.14V114.82H78.0117C78.2139 113.991 78.2598 113.176 78.2598 112.42V110.06H79.6602V112.46C79.6602 113.212 79.6182 114.009 79.4619 114.82H84.0596V116.14H79.0977C78.3848 118.076 76.8076 119.992 73.4004 121.46C73.3164 121.311 73.1797 121.117 73.0293 120.928C72.9463 120.823 72.8594 120.719 72.7744 120.624C72.7197 120.562 72.665 120.504 72.6133 120.451C72.5811 120.418 72.5498 120.388 72.5195 120.36C75.3652 119.161 76.8145 117.665 77.5439 116.14H72.9004Z" fill="#D9D9D9"/>
<path d="M83.46 121.48C82.54 120.42 80.6396 118.82 79.0596 117.72L79.9805 116.9C80.9746 117.563 82.1318 118.429 83.0791 119.24C83.2129 119.354 83.3428 119.468 83.4678 119.58L83.6445 119.741L83.79 119.876C84.0312 120.104 84.2441 120.321 84.4199 120.52L83.46 121.48Z" fill="#D9D9D9"/>
<path d="M66.6396 116.18C66.5801 115.9 66.3604 115.26 66.2002 114.9C66.6201 114.82 67.0596 114.32 67.6602 113.56C68 113.154 68.7549 112.123 69.5791 110.822C67.7402 111.064 67.0723 111.184 66.7324 111.294C66.6445 111.323 66.5781 111.351 66.5195 111.38C66.4404 111.08 66.2197 110.4 66.04 110.04C66.4004 109.94 66.7402 109.48 67.1797 108.8C67.6396 108.12 69.0996 105.5 69.9004 103.06L71.2197 103.68C70.3477 105.801 69.1836 108.01 67.9883 109.756L70.376 109.507C70.7959 108.782 71.2051 108.018 71.5596 107.26L72.7402 107.96C71.6006 110.099 70.2168 112.251 68.8076 114.025L72.2803 113.16C72.2803 113.328 72.2881 113.534 72.3018 113.739C72.3193 113.997 72.3467 114.252 72.3799 114.42C67.6797 115.68 67.04 115.92 66.6396 116.18Z" fill="#D9D9D9"/>
<path d="M66.5 120.08L66.1396 118.68C67.7002 118.18 70 117.34 72.2598 116.52L72.5 117.76L70.9482 118.364L68.7725 119.203C67.959 119.516 67.1885 119.813 66.5 120.08Z" fill="#D9D9D9"/>
<path d="M91.9004 112.86V114.28H97.3604V121.42H98.8799V114.28H104.5V112.86H98.8799V105.48H103.62V104.04H92.46V105.48H97.3604V112.86H91.9004Z" fill="#D9D9D9"/>
<path d="M101.82 106.56C101.54 108.08 100.96 110.28 100.46 111.62L101.66 111.98C101.812 111.612 101.97 111.183 102.129 110.719C102.313 110.182 102.499 109.597 102.68 109.004C102.875 108.364 103.066 107.714 103.245 107.104L103.3 106.92L101.82 106.56Z" fill="#D9D9D9"/>
<path d="M93.1396 106.92C93.6797 108.5 94.1396 110.52 94.2803 111.88L95.6201 111.52C95.4805 110.18 95 108.16 94.4004 106.58L93.1396 106.92Z" fill="#D9D9D9"/>
<path d="M87.2402 104.6C88.2803 105.54 89.6201 106.88 90.2402 107.72L91.2402 106.66C90.5996 105.84 89.2598 104.58 88.2002 103.68L87.2402 104.6Z" fill="#D9D9D9"/>
<path d="M90.5479 119.455L92.8398 117.68C92.7773 117.575 92.707 117.435 92.6367 117.282C92.5068 116.998 92.3779 116.667 92.2998 116.42L90.3203 117.899V109.3H86.1602V110.76H88.9199V118.14C88.9199 119 88.3604 119.54 88 119.76C88.1396 119.922 88.3027 120.17 88.4424 120.421C88.5615 120.636 88.6641 120.854 88.7197 121.02C88.8818 120.789 89.1299 120.565 89.9473 119.923L90.5479 119.455Z" fill="#D9D9D9"/>
<path d="M105.66 111.08C107.64 109.14 109.5 106.14 110.62 103.1L112.04 103.54C111.462 105.029 110.746 106.514 109.94 107.901V121.4H108.5V110.139C108.219 110.532 107.932 110.91 107.641 111.271C107.267 111.732 106.886 112.164 106.5 112.56C106.36 112.22 105.92 111.42 105.66 111.08Z" fill="#D9D9D9"/>
<path fill-rule="evenodd" clip-rule="evenodd" d="M112.92 121.42V112.96H117.26V108.86H111.78V107.42H117.26V103.02H118.8V107.42H124.5V108.86H118.8V112.96H123.28V121.34H121.74V120.56H114.42V121.42H112.92ZM114.42 119.14H121.74V114.4H114.42V119.14Z" fill="#D9D9D9"/>
<path d="M76.8213 82.2694C74.1546 83.809 70.8213 81.8845 70.8213 78.8053L70.8213 54.5566C70.8213 51.4774 74.1546 49.5529 76.8213 51.0925L97.8213 63.2168C100.488 64.7564 100.488 68.6054 97.8213 70.145L76.8213 82.2694Z" fill="#67C23A"/>
</svg>
